<?xml version="1.0" encoding="utf-8"?>
<!-- Generator: Adobe Illustrator 20.0.0, SVG Export Plug-In . SVG Version: 6.00 Build 0)  -->
<svg version="1.1" id="Capa_1" xmlns="http://www.w3.org/2000/svg" xmlns:xlink="http://www.w3.org/1999/xlink" x="0px" y="0px"
	 viewBox="0 0 109.3 109.3" style="enable-background:new 0 0 109.3 109.3;" xml:space="preserve">
<style type="text/css">
	.st0{fill:#777777;}
</style>
<g>
	<g>
		<path class="st0" d="M90.5,62.7c-3.9,0-7.7-1.1-11.2-3.4c-1-0.7-1.3-2.1-0.6-3.1c0.7-1,2.1-1.3,3.1-0.6c5.9,3.9,13.3,3.5,18.6-1
			c0.7-0.6,2.1-1.9,2.7-2.7c-4.4-7.5-11.1-7.2-11.2-7.2c-0.1,0-0.2,0-0.3,0c-3.8-0.3-7.1,0.4-10,2c-1.1,0.6-2.4,0.3-3.1-0.8
			c-0.6-1.1-0.3-2.5,0.8-3.1c3.6-2.1,7.8-3,12.4-2.6c1.4-0.1,10.4,0.2,15.8,10.5c0.4,0.8,1.3,2.6-4.3,7.4
			C99.5,61.1,95,62.7,90.5,62.7z"/>
	</g>
	<g>
		<path class="st0" d="M29.1,96.2H12.2c-1.2,0-2.2-1-2.3-2.2L9.7,73.8c0-1.2,1-2.3,2.2-2.3c0,0,0,0,0,0c1.2,0,2.2,1,2.3,2.2
			l0.2,17.9h12.5v-18c0-1.2,1-2.3,2.3-2.3s2.3,1,2.3,2.3v20.2C31.3,95.2,30.3,96.2,29.1,96.2z"/>
	</g>
	<g>
		<path class="st0" d="M24.8,71.2c-7.6,0-13.5-1.9-17.6-5.7C1,59.8,1.5,52,1.5,51.7c0.3-7.9,3-13.8,8-17.5c9.4-7,23.4-3.6,24-3.5
			c1,0.3,1.7,1.2,1.7,2.2v35.5c0,1.1-0.8,2.1-1.9,2.2C30.3,71,27.5,71.2,24.8,71.2z M33,68.3L33,68.3L33,68.3z M24.8,34.2
			c-4,0-8.9,0.7-12.6,3.5C8.3,40.6,6.2,45.4,6,51.9c0,0.1-0.3,6.2,4.3,10.4c4.2,3.8,11,5.2,20.4,4.1V34.7
			C29.3,34.5,27.2,34.2,24.8,34.2z"/>
	</g>
	<g>
		<path class="st0" d="M80.6,86c-0.3,0-0.5,0-0.8-0.1L38,70.8c-1.2-0.4-1.8-1.7-1.4-2.9c0.4-1.2,1.7-1.8,2.9-1.4l38.8,14V18.8
			L39.7,35.2c-1.1,0.5-2.5-0.1-2.9-1.2c-0.5-1.1,0-2.5,1.2-2.9l41.8-17.7c0.7-0.3,1.5-0.2,2.1,0.2c0.6,0.4,1,1.1,1,1.9v68.3
			c0,0.7-0.4,1.4-1,1.8C81.5,85.9,81,86,80.6,86z"/>
	</g>
</g>
</svg>
