<?xml version="1.0" encoding="utf-8"?>
<!-- Generator: Adobe Illustrator 20.0.0, SVG Export Plug-In . SVG Version: 6.00 Build 0)  -->
<svg version="1.1" id="Capa_1" xmlns="http://www.w3.org/2000/svg" xmlns:xlink="http://www.w3.org/1999/xlink" x="0px" y="0px"
	 viewBox="0 0 91.3 91.3" style="enable-background:new 0 0 91.3 91.3;" xml:space="preserve">
<style type="text/css">
	.st0{fill:#3369FD;}
</style>
<g>
	<g>
		<path class="st0" d="M64.8,89.7H28.1l1.1-3c1.2-3.2,0.7-8.8,0.2-12.2c0,0,0,0-0.1,0c-3.3,0-7.4-0.6-8-0.7c-2.7-0.4-4.7-1.6-6-3.5
			c-1.2-1.7-1.8-3.8-2-6.4c0-0.7,0-1.3,0-1.9c0.1-1.4,0.1-2.3-0.4-2.7c-0.1-0.1-0.5-0.1-0.8-0.2c-0.4-0.1-1-0.1-1.5-0.3
			c-1.2-0.4-2.3-1-3.2-1.7c-1.9-1.6-3-3.9-3-6.3c0-1.2,0.3-2.3,0.8-3.4c0.8-1.6,2.1-3,3.7-3.9c0.6-0.3,0.7-0.4,0.9-0.7
			c0.4-0.5,0.8-1.1,1.1-1.6c1.2-2.1,1.9-4.6,2.2-8.1c0.1-1.2,0.2-2.3,0.2-3.5c0.3-5,0.6-10.2,3.5-14.7C24.5,3,38.3,1.5,45.8,1.6
			c20.1,0.3,41,14.3,41,37.2c0,2.5-0.3,5.1-0.8,7.6l0,0c0,0.2-0.1,0.3-0.1,0.5C83.2,58.7,74.6,68.6,63.3,73
			c-1.8,3.9-1.7,8.5,0.3,13.6L64.8,89.7z M34.2,85.2h24.2c-1.5-5.5-1.1-10.6,1.3-15.1l0.4-0.8l0.8-0.3c10.3-3.7,18.2-12.6,20.6-23.3
			l0.1-0.4c0.5-2.2,0.7-4.4,0.7-6.6c0-20.1-18.6-32.4-36.5-32.7c-6.6-0.1-18.7,1.2-25,11.1c-2.3,3.6-2.5,7.9-2.8,12.5
			c-0.1,1.2-0.1,2.5-0.2,3.7c-0.4,4.1-1.2,7.3-2.7,9.9c-0.5,0.8-1,1.6-1.6,2.3c-0.8,0.9-1.4,1.3-2.2,1.8c-0.8,0.4-1.4,1.1-1.8,1.9
			c-0.2,0.5-0.3,1-0.3,1.5c0,1.1,0.5,2.1,1.4,2.9c0.5,0.4,1,0.7,1.6,0.9c0.3,0.1,0.5,0.1,0.8,0.1c0.9,0.1,2.3,0.3,3.4,1.5
			c1.9,1.9,1.8,4.3,1.7,6.1c0,0.5,0,1,0,1.5c0.1,1.7,0.5,3.1,1.2,4.1c0.6,0.9,1.6,1.4,3,1.6c2.4,0.4,7,0.9,8.9,0.6l2.1-0.3l0.4,2.1
			C33.6,72,35,79.4,34.2,85.2z"/>
	</g>
	<g>
		<path class="st0" d="M53.4,57.2H41.3L41,57c-13.7-8.3-11.4-26.3-11.3-27.1c1.3-9.7,12.2-12.3,17.7-12.3s16.4,2.6,17.7,12.3
			c0.1,0.8,2.3,18.8-11.3,27.1L53.4,57.2z M42.2,54.2h10.4c11.6-7.4,9.6-23.8,9.6-23.9c-1.3-9.6-14.6-9.7-14.8-9.7
			c-0.5,0-13.5,0.1-14.8,9.7C32.6,30.4,30.6,46.8,42.2,54.2z"/>
	</g>
	<g>
		<path class="st0" d="M50.3,67.5h-5.9c-3.3,0-6-2.7-6-6v-2.7c0-1.7,0.7-3.3,2-4.4l2,2.2c-0.6,0.6-1,1.4-1,2.2v2.7c0,1.7,1.4,3,3,3
			h5.9c1.7,0,3-1.4,3-3v-2.7c0-0.8-0.4-1.7-1-2.2l2-2.2c1.2,1.1,2,2.8,2,4.4v2.7C56.4,64.8,53.7,67.5,50.3,67.5z"/>
	</g>
	<g>
		<path class="st0" d="M46.1,54.4c0,0,0.2-0.3,0.6-0.9c0.2-0.3,0.3-0.5,0.5-0.9c0.1-0.3,0.3-0.9,0.4-1.5c0.3-1.1,0.5-2.5,0.3-3.8
			c-0.1-0.6-0.4-1.3-0.7-2.1c-0.2-0.4-0.3-0.8-0.5-1.2c-0.2-0.4-0.3-0.8-0.4-1.2c-1.1-3.4-0.9-6.9-0.3-9.3c0.3-1.2,0.7-2.2,0.9-2.9
			c0.3-0.7,0.5-1.1,0.5-1.1S47.2,30,47,30.7c-0.2,0.7-0.5,1.7-0.6,2.9c-0.1,1.2-0.2,2.7,0,4.2c0.2,1.5,0.6,3.1,1.2,4.5
			c0.2,0.4,0.3,0.7,0.5,1.1l0.6,1.1c0.4,0.7,0.8,1.5,1.1,2.4c0.5,1.8,0.4,3.4,0.2,4.7c-0.1,0.7-0.2,1.2-0.3,1.9
			c-0.2,0.6-0.4,1.1-0.6,1.5c-0.4,0.7-0.6,1.1-0.6,1.1l0,0c-0.4,0.7-1.4,0.9-2.1,0.5c-0.7-0.4-0.9-1.4-0.5-2.1
			C46.1,54.4,46.1,54.4,46.1,54.4z"/>
	</g>
	<g>
		<path class="st0" d="M48.6,31.5c0,0-0.6-3.6,3.3-5.8c0,0,2.4-1.8,5.7,0c0,0,0.5,3.2-2.7,5.5C54.8,31.2,52.2,33,48.6,31.5z"/>
	</g>
	<g>
		<path class="st0" d="M48.6,43.2c0,0-0.6-3.6,3.3-5.8c0,0,2.4-1.8,5.7,0c0,0,0.5,3.2-2.7,5.5C54.8,43,52.2,44.7,48.6,43.2z"/>
	</g>
	<g>
		<path class="st0" d="M44.7,36.2c0,0,0.6-3.6-3.3-5.8c0,0-2.4-1.8-5.7,0c0,0-0.5,3.2,2.7,5.5C38.5,35.9,41.1,37.6,44.7,36.2z"/>
	</g>
	<g>
		<path class="st0" d="M52,59.9h-9.2c-0.4,0-0.8-0.3-0.8-0.8s0.3-0.8,0.8-0.8H52c0.4,0,0.8,0.3,0.8,0.8S52.4,59.9,52,59.9z"/>
	</g>
	<g>
		<path class="st0" d="M52,62.8h-9.2c-0.4,0-0.8-0.3-0.8-0.8s0.3-0.8,0.8-0.8H52c0.4,0,0.8,0.3,0.8,0.8S52.4,62.8,52,62.8z"/>
	</g>
</g>
</svg>
