<?xml version="1.0" encoding="utf-8"?>
<!-- Generator: Adobe Illustrator 20.0.0, SVG Export Plug-In . SVG Version: 6.00 Build 0)  -->
<svg version="1.1" id="Capa_1" xmlns="http://www.w3.org/2000/svg" xmlns:xlink="http://www.w3.org/1999/xlink" x="0px" y="0px"
	 viewBox="0 0 91.3 91.3" style="enable-background:new 0 0 91.3 91.3;" xml:space="preserve">
<style type="text/css">
	.st0{fill:#777778;}
</style>
<g>
	<g>
		<path class="st0" d="M56.3,76.8l-1.2-0.5c-0.5-0.2-11.1-4.6-10.8-18.6c-0.1-1.4-0.3-10.2,9.5-15.9c2.5-1.4,5.9,1.9,8.4,4.9
			c3.2,4,4.6,9,4,14.2c-0.7,5.8-4,11.5-8.9,15.2L56.3,76.8z M55.3,46.2c-7.1,4.6-6.5,11.1-6.5,11.2l0,0.2l0,0.2
			c-0.2,8.6,4.6,12.5,6.8,13.9c3.3-2.9,5.5-7,6.1-11.2c0.3-2.8,0.1-6.9-3-10.8C58.1,48.8,56.3,46.9,55.3,46.2z"/>
	</g>
	<g>
		<path class="st0" d="M73.4,85.5H18c-1.2,0-2.2-1-2.2-2.3V15.5c0-1.2,1-2.3,2.2-2.3h55.4c1.2,0,2.3,1,2.3,2.3v67.7
			C75.6,84.5,74.6,85.5,73.4,85.5z M20.2,81h50.9V17.8H20.2V81z"/>
	</g>
	<g>
		<g>
			<path class="st0" d="M32.3,26L32.3,26c-2.5,0-4.5-2-4.5-4.5V10.3c0-2.5,2-4.5,4.5-4.5h0c2.5,0,4.5,2,4.5,4.5v11.2
				C36.8,24,34.8,26,32.3,26z"/>
		</g>
		<g>
			<path class="st0" d="M59.2,26L59.2,26c-2.5,0-4.5-2-4.5-4.5V10.3c0-2.5,2-4.5,4.5-4.5h0c2.5,0,4.5,2,4.5,4.5v11.2
				C63.8,24,61.7,26,59.2,26z"/>
		</g>
	</g>
	<g>
		<path class="st0" d="M72.8,37h-53c-1.3,0-2.3-1-2.3-2.3s1-2.3,2.3-2.3h53c1.3,0,2.3,1,2.3,2.3S74.1,37,72.8,37z"/>
	</g>
	<g>
		<g>
			<path class="st0" d="M29.7,69.5h4.6V49.1h-4.8v-5.2H40v25.7h4.2v4.9H29.7V69.5z"/>
		</g>
	</g>
</g>
</svg>
