<?xml version="1.0" encoding="utf-8"?>
<!-- Generator: Adobe Illustrator 20.0.0, SVG Export Plug-In . SVG Version: 6.00 Build 0)  -->
<svg version="1.1" id="Capa_1" xmlns="http://www.w3.org/2000/svg" xmlns:xlink="http://www.w3.org/1999/xlink" x="0px" y="0px"
	 viewBox="0 0 91.3 91.3" style="enable-background:new 0 0 91.3 91.3;" xml:space="preserve">
<style type="text/css">
	.st0{fill:#777778;}
</style>
<g>
	<g>
		<path class="st0" d="M75.3,85.2H16V42.8c0-1.2,1-2.3,2.3-2.3s2.3,1,2.3,2.3v37.9h50.2V42.8c0-1.2,1-2.3,2.3-2.3s2.3,1,2.3,2.3
			V85.2z"/>
	</g>
	<g>
		<path class="st0" d="M46.3,83.5L45.2,83c-0.6-0.3-14.1-6.4-13-24.5c-0.1-1.6-0.1-13,12.9-20c0.8-0.4,2.9-1.5,8.8,5.3
			c4.5,5.1,6.5,11.8,5.7,18.8c-1,7.9-5.5,15.5-12.1,20.1L46.3,83.5z M46.4,43c-10.3,6-9.8,15.1-9.7,15.5l0,0.1l0,0.2
			C35.9,71,43,76.6,45.9,78.3c5-4,8.4-9.9,9.2-16.2c0.7-5.7-0.9-11.1-4.6-15.3C49.5,45.8,47.5,43.7,46.4,43z"/>
	</g>
	<g>
		<path class="st0" d="M73.1,15.9c0,0-1.6-4.3,2.6-7.9c0,0,2.5-2.8,7-1.4c0,0,1.4,3.8-2,7.5C80.7,14,77.9,16.8,73.1,15.9z"/>
	</g>
	<g>
		<path class="st0" d="M83.8,42.1c-0.5,0-0.9-0.1-1.3-0.4L45.6,15.4L8.8,41.7c-1,0.7-2.4,0.5-3.1-0.5c-0.7-1-0.5-2.4,0.5-3.1
			L45.6,9.9L85.1,38c1,0.7,1.2,2.1,0.5,3.1C85.2,41.8,84.5,42.1,83.8,42.1z"/>
	</g>
	<g>
		<path class="st0" d="M70.8,15.8c0.8,0.2,1.4,0.9,1.9,1.5c1,1.1,1.6,2.5,2,3.9c0.4,1.4,0.5,2.8,0.5,4.2c0,1.4-0.1,2.8-0.4,4.3
			c-0.3,1.2-1.6,2-3,1.8s-2.3-1.4-2-2.7c0-0.2,0.1-0.4,0.2-0.6c0.6-1,1.1-2.2,1.4-3.3c0.4-1.2,0.6-2.4,0.7-3.6
			c0.1-1.2,0-2.4-0.6-3.5c0,0-0.6-1.2-0.9-1.4S70.4,15.6,70.8,15.8z"/>
		<path class="st0" d="M72.4,31.9c-0.2,0-0.4,0-0.5,0c-0.8-0.1-1.5-0.6-1.9-1.2c-0.4-0.6-0.5-1.2-0.4-1.9c0.1-0.3,0.2-0.5,0.3-0.7
			c0.5-0.9,1-2,1.4-3.2c0.4-1.2,0.6-2.4,0.7-3.5c0.1-1.4-0.1-2.5-0.5-3.3c-0.3-0.6-0.6-1.2-0.8-1.2c-0.4-0.2-0.6-0.7-0.4-1
			c0.1-0.2,0.4-0.4,0.8-0.3c0.8,0.3,1.5,0.9,2.1,1.6c0.9,1,1.6,2.3,2.1,4c0.4,1.3,0.5,2.8,0.5,4.3c0,1.7-0.1,3-0.4,4.4
			C74.9,31,73.7,31.9,72.4,31.9z M71.3,16.4c0.3,0.4,0.6,0.9,0.7,1.2c0.6,1.3,0.7,2.7,0.6,3.7c-0.1,1.2-0.3,2.4-0.7,3.7
			c-0.4,1.3-0.9,2.5-1.5,3.4c-0.1,0.2-0.2,0.3-0.2,0.5c-0.1,0.5,0,0.9,0.3,1.3c0.3,0.5,0.8,0.8,1.4,0.9c1.2,0.2,2.3-0.5,2.5-1.5
			c0.3-1.4,0.4-2.6,0.4-4.3c0-1.5-0.2-2.9-0.5-4.1c-0.5-1.6-1.1-2.8-1.9-3.7C72.1,17.1,71.7,16.7,71.3,16.4z M70.8,15.8l-0.1,0.4
			c0,0,0,0,0,0L70.8,15.8z"/>
	</g>
</g>
</svg>
