<?xml version="1.0" encoding="utf-8"?>
<!-- Generator: Adobe Illustrator 20.0.0, SVG Export Plug-In . SVG Version: 6.00 Build 0)  -->
<svg version="1.1" id="Capa_1" xmlns="http://www.w3.org/2000/svg" xmlns:xlink="http://www.w3.org/1999/xlink" x="0px" y="0px"
	 viewBox="0 0 91.3 91.3" style="enable-background:new 0 0 91.3 91.3;" xml:space="preserve">
<style type="text/css">
	.st0{fill:#2FDAA7;}
	.st1{fill:none;stroke:#FFFFFF;stroke-width:2.3324;stroke-linecap:round;stroke-miterlimit:10;}
	.st2{fill:none;stroke:#FFFFFF;stroke-width:2.3324;stroke-linecap:round;stroke-linejoin:round;stroke-miterlimit:10;}
	.st3{fill:none;stroke:#FFFFFF;stroke-width:2.6116;stroke-linecap:round;stroke-miterlimit:10;}
	.st4{fill:none;stroke:#FFFFFF;stroke-width:2.6116;stroke-linecap:round;stroke-linejoin:round;stroke-miterlimit:10;}
</style>
<g>
	<circle class="st0" cx="45.6" cy="45.6" r="42.4"/>
	<g>
		<g>
			<path class="st1" d="M61.5,66.1c0,0-2.2-12.8-15.9-13c0,0-13.4-0.7-15.6,13"/>
			<path class="st2" d="M54.5,39.1L54.5,39.1c0,0-0.9-4.9-6.4-9.4c0,0-2.7-2.5-2.8-4.5c-0.1,2-2.8,4.5-2.8,4.5
				c-5.5,4.5-6.2,9.6-6.2,9.6l0,0c-0.1,0.6-0.2,1.3-0.2,2c0,4.9,4.2,9,9.4,9s9.4-4,9.4-9C54.8,40.5,54.7,39.8,54.5,39.1z"/>
		</g>
		<g>
			<path class="st3" d="M79,60.6c0,0-1.6-9.4-11.7-9.6c0,0-7.5-0.4-10.5,6.3"/>
			<path class="st4" d="M73.9,40.8L73.9,40.8c0,0-0.7-3.6-4.7-6.9c0,0-2-1.8-2.1-3.3C67,32.1,65,33.9,65,33.9c-4.1,3.3-4.6,7-4.6,7
				l0,0c-0.1,0.5-0.2,0.9-0.2,1.4c0,3.6,3.1,6.6,6.9,6.6c3.8,0,6.9-2.9,6.9-6.6C74.1,41.9,74,41.3,73.9,40.8z"/>
		</g>
		<g>
			<path class="st3" d="M34.2,57.3c-1.4-2.7-4.4-6.2-10.4-6.3c0,0-9.8-0.5-11.5,9.6"/>
			<path class="st4" d="M30.3,40.8L30.3,40.8c0,0-0.7-3.6-4.7-6.9c0,0-2-1.8-2.1-3.3c-0.1,1.5-2.1,3.3-2.1,3.3c-4.1,3.3-4.6,7-4.6,7
				l0,0c-0.1,0.5-0.2,0.9-0.2,1.4c0,3.6,3.1,6.6,6.9,6.6s6.9-2.9,6.9-6.6C30.5,41.9,30.4,41.3,30.3,40.8z"/>
		</g>
	</g>
</g>
</svg>
