<svg xmlns="http://www.w3.org/2000/svg" width="294.301" height="135.343" viewBox="0 0 294.301 135.343">
  <g id="Group_924" data-name="Group 924" transform="translate(10199.287 -7154.934)">
    <path id="Path_246" data-name="Path 246" d="M131.247,213.649s-7.811-11.238-10.5-17.344a80.606,80.606,0,0,1-3.574-10.867,64.374,64.374,0,0,1-2.191-11.106,77.962,77.962,0,0,1-.2-15.539c.31-2.94.025-5.984,3.435-17.439s10.075-26.248,11.272-31.58a119.071,119.071,0,0,0,2.976-15.923c.313-2.994.767-5.939,0-8.46-.464-1.527-1.776-2.947-1.566-3.864.478-2.089,3.278,1.129,3.9,3.864a46.51,46.51,0,0,1,.781,8.46c.14,5.676-1.741,20.254-5.7,31.305-1.8,5.391-4.338,11.651-6.078,16.69a83.819,83.819,0,0,0-3.4,11.845c-1.175,5.4-1.932,11.151-1.624,21.033a68.839,68.839,0,0,0,1.97,13.535,99.175,99.175,0,0,0,5.05,14.987A116.975,116.975,0,0,0,131.247,213.649Z" transform="translate(-10208.98 7076.628)" fill="#3369fd"/>
    <path id="Path_247" data-name="Path 247" d="M118.448,97.092a9.056,9.056,0,0,1-5.233-8.642,9.643,9.643,0,0,1,10.152.1,9.114,9.114,0,0,1,4.973,8.29A8.684,8.684,0,0,1,118.448,97.092Z" transform="translate(-10220.283 7126.009)" fill="#3369fd"/>
    <path id="Path_248" data-name="Path 248" d="M123.037,78.316a10.028,10.028,0,0,1,9.842.661,9.57,9.57,0,0,1-4.918,7.829,11,11,0,0,1-9.666.17A9.425,9.425,0,0,1,123.037,78.316Z" transform="translate(-10191.996 7077.604)" fill="#3369fd"/>
    <path id="Path_249" data-name="Path 249" d="M129.175,86.776a10.021,10.021,0,0,1,.716,9.836,9.572,9.572,0,0,1-8.435-3.772,11.05,11.05,0,0,1-1.516-9.551A9.423,9.423,0,0,1,129.175,86.776Z" transform="translate(-10188.604 7109.498)" fill="#3369fd"/>
    <path id="Path_250" data-name="Path 250" d="M117,104.083c-.109-4.215.456-6.03,3.064-9.548a24.146,24.146,0,0,1,10.455-8.053,30.8,30.8,0,0,1,11.735-1.619c5.765.437,13.849,3.431,13.4,4.627s-4.849-1.575-10.291-1.5-8.3.646-11.47,1.859a31.879,31.879,0,0,0-9.263,5.409C121.846,97.68,119.654,100.786,117,104.083Z" transform="translate(-10199.359 7102.102)" fill="#3369fd"/>
    <path id="Path_302" data-name="Path 302" d="M938.884,587.4a14.616,14.616,0,0,1-5.153,2.326,26.16,26.16,0,0,1-6.428.774q-8.754,0-13.543-4.468T908.973,572.9V552.749H901.4V541.807h7.568V529.861H923.2v11.946h12.219v10.943H923.2v19.97a6.7,6.7,0,0,0,1.6,4.788,5.906,5.906,0,0,0,4.514,1.686,9.155,9.155,0,0,0,5.745-1.822Z" transform="translate(-10979.433 6694.846)" fill="#3369fd"/>
    <path id="Path_845" data-name="Path 845" d="M-10154.6,7233.729l18.048,24.313-18.565,24.486s15.175-.307,15.175,0,11.188-15.021,11.188-15.021l10.4,15.021h16.324l-19.045-25.31,18.336-23.49h-15.175l-10.845,14.408-10.308-14.408Z" transform="translate(3)" fill="#3369fd"/>
    <path id="Path_846" data-name="Path 846" d="M-10205.287,7225.282v56.591h43.938v-10.561h-31.284v-12.753h26.7V7248.2h-26.7v-12.255h30.188v-10.661Z" transform="translate(6)" fill="#3369fd"/>
    <path id="Path_847" data-name="Path 847" d="M-10032.95,7236.367v28.993s-.9,11.656,11.955,16.24,21.819-5.081,21.819-5.081v5.081h12.531v-45.232h-13.469v24.742s-.029,9.977-9.96,9.932-9.891-9.932-9.891-9.932v-24.742Z" transform="translate(-3)" fill="#3369fd"/>
    <path id="Path_848" data-name="Path 848" d="M-9979.15,7236.367v45.7h13.112v-24.978s.03-9.614,9.759-9.624,9.106,9.624,9.106,9.624v24.978h13.1v-24.978s.67-9.85,9.944-9.624,8.757,9.624,8.757,9.624v24.978h13.352v-24.978s1.176-13.846-10.856-19.825a19.177,19.177,0,0,0-7.8-1.613,20.659,20.659,0,0,0-10.178,2.7,19.426,19.426,0,0,0-6.135,4.975s-4.033-6.875-14.468-7.347-15.4,6.2-15.4,6.2v-5.81Z" transform="translate(-3)" fill="#3369fd"/>
  </g>
</svg>
