<svg id="Layer_1" enable-background="new 0 0 128 128" height="512" viewBox="0 0 128 128" width="512" xmlns="http://www.w3.org/2000/svg"><g><g><path d="m116.498 25.624h-44.807c-1.869-5.363-6.963-9.228-12.956-9.228h-35.506c-7.569 0-13.728 6.158-13.728 13.728v25.844c0 7.323 5.768 13.308 12.996 13.691v39.945c0 3.309 2.691 6 6 6h88c3.309 0 6-2.691 6-6v-77.98c.001-3.309-2.69-6-5.999-6z" fill="#e6e7e8"/></g><g><g><path d="m19.498 38.404v67.2c0 2.761 2.239 5 5 5h88c2.761 0 5-2.239 5-5v-67.2z" fill="#d4fbff"/><path d="m54.641 71.923h-24.469c-1.105 0-2 .895-2 2v23.976c0 1.105.895 2 2 2h24.469c1.104 0 2-.895 2-2v-23.976c0-1.104-.895-2-2-2z" fill="#0089ef"/><path d="m112.498 22.624h-88c-2.761 0-5 2.239-5 5v10.78h98v-10.78c0-2.762-2.238-5-5-5z" fill="#0089ef"/><g><path d="m109.539 27.903c-1.287 0-2.33 1.043-2.33 2.33s1.043 2.33 2.33 2.33 2.33-1.043 2.33-2.33-1.043-2.33-2.33-2.33z" fill="#fa759e"/><path d="m100.063 27.903c-1.287 0-2.33 1.043-2.33 2.33s1.043 2.33 2.33 2.33 2.33-1.043 2.33-2.33-1.043-2.33-2.33-2.33z" fill="#ffd7e5"/><path d="m90.587 27.903c-1.287 0-2.33 1.043-2.33 2.33s1.043 2.33 2.33 2.33 2.33-1.043 2.33-2.33-1.043-2.33-2.33-2.33z" fill="#d4fbff"/></g></g><g><g><path d="m19.23 13.396h35.506c7 0 12.728 5.728 12.728 12.728v25.844c0 7-5.728 12.728-12.728 12.728h-4.584v10.787l-14.652-10.728c-.084-.039-16.27-.059-16.27-.059-7 0-12.728-5.728-12.728-12.728v-25.844c0-7 5.728-12.728 12.728-12.728z" fill="#ffd7e5"/></g><g><path d="m54.736 13.396h-35.506c-7 0-12.728 5.728-12.728 12.728v3c0-7 5.728-12.728 12.728-12.728h35.506c7 0 12.728 5.728 12.728 12.728v-3c0-7-5.728-12.728-12.728-12.728z" fill="#fff"/></g><g><g><g><g><path d="m35.366 56.176-2.824 1.188c-.538.227-1.156-.026-1.383-.564l-5.243-12.471c.279.037.564.055.854.055 1.576 0 3.029-.526 4.19-1.412l4.97 11.821c.227.537-.026 1.156-.564 1.383z" fill="#6dc9f7"/></g></g><g><path d="m51 23.628v27.659l-4.711-3.61c-2.468-1.892-5.211-2.775-8.116-3.759-2.154-.731-4.395-1.202-6.678-1.395 1.355-1.265 2.2-3.066 2.2-5.065s-.846-3.799-2.2-5.065c5.361-.457 10.501-1.861 14.795-5.154z" fill="#6dc9f7"/></g><path d="m54.185 20.443c-1.759 0-3.185 1.426-3.185 3.185v27.659c0 1.759 1.426 3.185 3.185 3.185s3.185-1.426 3.185-3.185v-27.659c0-1.759-1.426-3.185-3.185-3.185z" fill="#0089ef"/><g><path d="m19.843 37.458c0 1.435.437 2.77 1.188 3.877-.046.006-.089.006-.135.006h-.863c-1.898 0-3.451-1.553-3.451-3.451v-.863c0-1.898 1.553-3.451 3.451-3.451h.863c.046 0 .089 0 .135.006-.75 1.107-1.188 2.441-1.188 3.876z" fill="#6dc9f7"/></g><path d="m26.769 30.531c-3.825 0-6.927 3.101-6.927 6.927 0 3.825 3.101 6.927 6.927 6.927s6.927-3.101 6.927-6.927-3.102-6.927-6.927-6.927z" fill="#0089ef"/><g fill="#3a2c60"><path d="m117.498 55c-.553 0-1 .448-1 1v9c0 .552.447 1 1 1s1-.448 1-1v-9c0-.552-.447-1-1-1z"/><path d="m112.498 21.624h-44.807c-1.869-5.363-6.963-9.228-12.956-9.228h-35.506c-7.569 0-13.728 6.158-13.728 13.728v25.844c0 7.323 5.768 13.308 12.996 13.691v39.945c0 3.309 2.691 6 6 6h88c3.309 0 6-2.691 6-6v-36.122c0-.552-.447-1-1-1s-1 .448-1 1v36.122c0 2.206-1.794 4-4 4h-88c-2.206 0-4-1.794-4-4v-39.906c5.669.008 13.125.026 14.662.048l14.4 10.543c.175.128.382.193.591.193.154 0 .31-.036.452-.108.336-.17.548-.515.548-.892v-9.786h3.584c4.615 0 8.695-2.295 11.186-5.797h41.642c.553 0 1-.448 1-1s-.447-1-1-1h-40.465c.866-1.798 1.366-3.805 1.366-5.931v-2.069h39.099c.553 0 1-.448 1-1s-.447-1-1-1h-39.098v-8.495h48.034v12.043c0 .552.447 1 1 1s1-.448 1-1v-13.043-10.78c0-3.309-2.691-6-6-6zm-57.763 42.072h-4.584c-.553 0-1 .448-1 1v8.814l-13.061-9.562c-.053-.039-.109-.072-.169-.1-.278-.129-.284-.132-16.692-.152-6.467 0-11.728-5.261-11.728-11.728v-25.844c0-6.467 5.261-11.728 11.728-11.728h35.506c6.467 0 11.729 5.261 11.729 11.728v25.844c0 6.467-5.262 11.728-11.729 11.728zm13.49-40.072h44.273c2.206 0 4 1.794 4 4v9.78h-48.034v-11.28c0-.855-.089-1.688-.239-2.5z"/><path d="m107.563 67.899h-45c-.553 0-1 .448-1 1s.447 1 1 1h45c.553 0 1-.448 1-1s-.448-1-1-1z"/><path d="m107.563 77.899h-45c-.553 0-1 .448-1 1s.447 1 1 1h45c.553 0 1-.448 1-1s-.448-1-1-1z"/><path d="m107.563 87.899h-45c-.553 0-1 .448-1 1s.447 1 1 1h45c.553 0 1-.448 1-1s-.448-1-1-1z"/><path d="m107.563 97.899h-45c-.553 0-1 .448-1 1s.447 1 1 1h45c.553 0 1-.448 1-1s-.448-1-1-1z"/><path d="m54.185 19.443c-2.125 0-3.865 1.597-4.131 3.65l-4.373 3.353c-3.599 2.76-8.143 4.361-13.863 4.905-1.372-1.137-3.132-1.821-5.048-1.821-2.529 0-4.78 1.195-6.232 3.045h-.504c-2.454 0-4.451 1.997-4.451 4.451v.863c0 2.455 1.997 4.452 4.451 4.452h.506c1.145 1.458 2.785 2.509 4.669 2.887l5.028 11.96c.214.507.612.9 1.121 1.107.251.102.513.152.774.152.271 0 .541-.054.797-.163l2.827-1.189c1.043-.441 1.535-1.649 1.096-2.692l-4.532-10.78c1.875.222 3.733.63 5.533 1.24l.351.119c2.694.911 5.24 1.771 7.478 3.487l4.374 3.351c.266 2.053 2.006 3.65 4.13 3.65 2.308 0 4.186-1.877 4.186-4.185v-27.657c-.002-2.308-1.88-4.185-4.187-4.185zm-36.603 18.447v-.863c0-1.114.752-2.046 1.771-2.343-.325.865-.511 1.797-.511 2.774 0 .978.186 1.911.512 2.776-1.02-.297-1.772-1.229-1.772-2.344zm3.261-.432c0-3.268 2.659-5.927 5.927-5.927s5.926 2.659 5.926 5.927-2.658 5.927-5.926 5.927-5.927-2.659-5.927-5.927zm11.237 18.955-4.651-11.062c1.099-.091 2.135-.404 3.062-.899l4.487 10.802zm6.764-13.324-.35-.118c-1.653-.56-3.351-.969-5.069-1.225.8-1.238 1.27-2.708 1.27-4.288 0-1.575-.467-3.04-1.262-4.275 5.442-.704 9.867-2.39 13.464-5.149l3.103-2.379v23.606l-3.103-2.377c-2.5-1.917-5.197-2.829-8.053-3.795zm17.526 8.198c0 1.205-.98 2.185-2.186 2.185-1.204 0-2.185-.98-2.185-2.185v-27.659c0-1.205.98-2.185 2.185-2.185s2.186.98 2.186 2.185z"/></g></g></g></g></g></g></svg>