<svg height="401pt" viewBox="0 -9 401.34656 401" width="401pt" xmlns="http://www.w3.org/2000/svg"><path d="m252.585938 338.09375c0 20.734375-16.808594 37.546875-37.546876 37.546875-20.734374 0-37.546874-16.8125-37.546874-37.546875 0-20.738281 16.8125-37.546875 37.546874-37.546875 20.738282 0 37.546876 16.808594 37.546876 37.546875zm0 0" fill="#fc8c29"/><path d="m215.039062 382.464844c-24.464843 0-44.371093-19.90625-44.371093-44.371094 0-24.46875 19.90625-44.375 44.371093-44.375 24.46875 0 44.375 19.90625 44.375 44.375 0 24.464844-19.90625 44.371094-44.375 44.371094zm0-75.089844c-16.9375 0-30.71875 13.777344-30.71875 30.71875s13.78125 30.71875 30.71875 30.71875c16.941407 0 30.722657-13.777344 30.722657-30.71875s-13.78125-30.71875-30.722657-30.71875zm0 0" fill="#4c241d"/><path d="m314.027344 157.1875c0 86.714844-70.296875 157.011719-157.015625 157.011719-86.714844 0-157.011719-70.296875-157.011719-157.011719 0-86.71875 70.296875-157.015625 157.011719-157.015625 86.71875 0 157.015625 70.296875 157.015625 157.015625zm0 0" fill="#efefd2"/><path d="m232.105469 88.921875h-47.785157c-3.773437 0-6.828124-3.058594-6.828124-6.828125v-30.71875c0-16.941406 13.78125-30.722656 30.722656-30.722656 16.9375 0 30.71875 13.78125 30.71875 30.722656v30.71875c0 3.769531-3.054688 6.828125-6.828125 6.828125zm-40.957031-13.65625h34.132812v-23.890625c0-9.414062-7.652344-17.070312-17.066406-17.070312-9.414063 0-17.066406 7.65625-17.066406 17.070312zm0 0" fill="#4c241d"/><path d="m344.746094 293.71875h-10.238282v-109.226562c0-67.863282-55.015624-122.878907-122.882812-122.878907-67.863281 0-122.878906 55.015625-122.878906 122.878907v109.226562h-10.238282c-13.195312 0-23.894531 10.699219-23.894531 23.894531 0 13.195313 10.699219 23.894531 23.894531 23.894531h266.238282c13.195312 0 23.894531-10.699218 23.894531-23.894531 0-13.195312-10.699219-23.894531-23.894531-23.894531zm0 0" fill="#ffce56"/><path d="m344.746094 348.332031h-266.238282c-16.941406 0-30.722656-13.777343-30.722656-30.71875 0-16.941406 13.78125-30.71875 30.722656-30.71875h3.414063v-102.402343c0-71.519532 58.183594-129.707032 129.703125-129.707032s129.707031 58.1875 129.707031 129.707032v102.402343h3.414063c16.941406 0 30.71875 13.777344 30.71875 30.71875 0 16.941407-13.777344 30.71875-30.71875 30.71875zm-266.238282-47.785156c-9.414062 0-17.066406 7.65625-17.066406 17.066406 0 9.410157 7.652344 17.066407 17.066406 17.066407h266.238282c9.414062 0 17.066406-7.65625 17.066406-17.066407 0-9.410156-7.652344-17.066406-17.066406-17.066406h-10.238282c-3.773437 0-6.828124-3.058594-6.828124-6.828125v-109.226562c0-63.992188-52.058594-116.050782-116.054688-116.050782-63.992188 0-116.050781 52.058594-116.050781 116.050782v109.226562c0 3.769531-3.054688 6.828125-6.828125 6.828125zm0 0" fill="#4c241d"/><path d="m96.625 180.292969v28.160156c24.488281 12.839844 61.507812 1.078125 87.765625-29.621094 29.457031-34.4375 34.167969-79.574219 10.519531-100.816406-2.925781-2.632813-6.15625-4.765625-9.617187-6.433594-50.398438 9.300781-88.667969 54.378907-88.667969 108.710938zm0 0" fill="#ffec95"/><path d="m394.519531 164.011719c0 33.144531-26.871093 60.011719-60.011719 60.011719-33.144531 0-60.011718-26.867188-60.011718-60.011719 0-33.140625 26.867187-60.011719 60.011718-60.011719 33.140626 0 60.011719 26.871094 60.011719 60.011719zm0 0" fill="#fff"/><g fill="#4c241d"><path d="m334.507812 230.851562c-36.855468 0-66.839843-29.984374-66.839843-66.839843 0-36.851563 29.984375-66.835938 66.839843-66.835938 36.851563 0 66.839844 29.984375 66.839844 66.835938 0 36.855469-29.988281 66.839843-66.839844 66.839843zm0-120.019531c-29.328124 0-53.1875 23.855469-53.1875 53.179688 0 29.328125 23.859376 53.183593 53.1875 53.183593 29.328126 0 53.183594-23.855468 53.183594-53.183593 0-29.324219-23.855468-53.179688-53.183594-53.179688zm0 0"/><path d="m232.105469 300.546875h-13.652344c-3.773437 0-6.828125-3.058594-6.828125-6.828125s3.054688-6.824219 6.828125-6.824219h13.652344c3.773437 0 6.828125 3.054688 6.828125 6.824219s-3.054688 6.828125-6.828125 6.828125zm0 0"/><path d="m193.421875 300.546875h-70.542969c-3.773437 0-6.824218-3.058594-6.824218-6.828125s3.050781-6.824219 6.824218-6.824219h70.542969c3.773437 0 6.824219 3.054688 6.824219 6.824219s-3.050782 6.828125-6.824219 6.828125zm0 0"/></g><path d="m306.347656 165.679688c-8.164062-9.882813-2.519531-25.53125 10.234375-26.828126.632813-.066406 1.277344-.097656 1.925781-.097656 6.558594 0 12.324219 3.351563 15.699219 8.433594 3.375-5.078125 9.144531-8.433594 15.699219-8.433594.652344 0 1.296875.03125 1.929688.097656 12.75 1.296876 18.394531 16.945313 10.230468 26.828126l-27.855468 33.71875zm0 0" fill="#e66353"/><path d="m334.207031 206.222656c-2.035156 0-3.96875-.910156-5.261719-2.476562l-27.859374-33.71875h-.007813c-5.542969-6.722656-6.910156-15.953125-3.570313-24.085938 3.226563-7.851562 10.097657-13.039062 18.382813-13.882812 6.308594-.671875 13.195313 1.265625 18.3125 5.230468 5.113281-3.960937 11.835937-5.898437 18.339844-5.226562 8.261719.839844 15.132812 6.027344 18.363281 13.878906 3.339844 8.136719 1.972656 17.367188-3.574219 24.085938l-27.867187 33.71875c-1.292969 1.566406-3.222656 2.476562-5.257813 2.476562zm-22.601562-44.890625 22.601562 27.347657 22.597657-27.347657c2.789062-3.378906 2.589843-7.484375 1.472656-10.203125-.609375-1.492187-2.539063-5.019531-7.132813-5.484375-4.652343-.484375-8.785156 1.609375-11.253906 5.316407-2.53125 3.8125-8.839844 3.8125-11.371094 0-2.46875-3.703126-6.84375-5.792969-11.226562-5.316407-4.621094.464844-6.546875 3.992188-7.160157 5.484375-1.113281 2.71875-1.3125 6.824219 1.472657 10.203125zm0 0" fill="#4c241d"/></svg>