<svg xmlns="http://www.w3.org/2000/svg" width="148" height="148" viewBox="0 0 148 148">
  <g id="Grupo_849" data-name="Grupo 849" transform="translate(2122 -16098)">
    <rect id="Rectángulo_482" data-name="Rectángulo 482" width="148" height="148" rx="15" transform="translate(-2122 16098)" fill="#3369fd"/>
    <g id="Grupo_848" data-name="Grupo 848" transform="translate(-2073.297 16116.732)">
      <path id="Path_246" data-name="Path 246" d="M128.509,191.982s-6.537-9.4-8.79-14.514a67.455,67.455,0,0,1-2.991-9.094,53.871,53.871,0,0,1-1.834-9.294,65.242,65.242,0,0,1-.167-13c.26-2.46.021-5.007,2.875-14.594s8.431-21.965,9.433-26.427a99.645,99.645,0,0,0,2.49-13.325c.262-2.505.642-4.97,0-7.079-.388-1.278-1.486-2.466-1.311-3.234.4-1.748,2.743.945,3.261,3.234a38.923,38.923,0,0,1,.654,7.079c.117,4.75-1.457,16.949-4.769,26.2-1.507,4.512-3.63,9.75-5.087,13.967a70.145,70.145,0,0,0-2.844,9.912,66.724,66.724,0,0,0-1.359,17.6,57.608,57.608,0,0,0,1.649,11.326,82.993,82.993,0,0,0,4.226,12.541A97.886,97.886,0,0,0,128.509,191.982Z" transform="translate(-103.951 -78.722)" fill="#fff"/>
      <path id="Path_247" data-name="Path 247" d="M117.592,95.455a7.578,7.578,0,0,1-4.38-7.232,8.07,8.07,0,0,1,8.5.086,7.627,7.627,0,0,1,4.161,6.937A7.267,7.267,0,0,1,117.592,95.455Z" transform="translate(-113.204 -38.409)" fill="#fff"/>
      <path id="Path_248" data-name="Path 248" d="M122.261,78.155a8.392,8.392,0,0,1,8.236.553,8.009,8.009,0,0,1-4.116,6.552,9.206,9.206,0,0,1-8.089.142A7.887,7.887,0,0,1,122.261,78.155Z" transform="translate(-90.359 -77.329)" fill="#fff"/>
      <path id="Path_249" data-name="Path 249" d="M127.59,86.18a8.385,8.385,0,0,1,.6,8.231,8.01,8.01,0,0,1-7.059-3.157,9.247,9.247,0,0,1-1.269-7.993A7.886,7.886,0,0,1,127.59,86.18Z" transform="translate(-87.714 -51.584)" fill="#fff"/>
      <path id="Path_250" data-name="Path 250" d="M117,100.936c-.091-3.527.382-5.046,2.564-7.99a20.206,20.206,0,0,1,8.749-6.739,25.778,25.778,0,0,1,9.82-1.355c4.824.366,11.589,2.871,11.213,3.872s-4.058-1.318-8.612-1.253a25.176,25.176,0,0,0-9.6,1.555,26.678,26.678,0,0,0-7.752,4.527C121.054,95.578,119.219,98.177,117,100.936Z" transform="translate(-96.311 -58.046)" fill="#fff"/>
    </g>
  </g>
</svg>
