<svg xmlns="http://www.w3.org/2000/svg" xmlns:xlink="http://www.w3.org/1999/xlink" width="96" height="85" viewBox="0 0 96 85">
  <defs>
    <linearGradient id="linear-gradient" x1="0.155" y1="0.268" x2="1.181" y2="0.548" gradientUnits="objectBoundingBox">
      <stop offset="0" stop-color="#3369fd"/>
      <stop offset="1" stop-color="#1d3b8e"/>
    </linearGradient>
    <linearGradient id="linear-gradient-2" x1="0.5" y1="0.637" x2="0.556" y2="1.101" gradientUnits="objectBoundingBox">
      <stop offset="0" stop-color="#7ee26c"/>
      <stop offset="1" stop-color="#24c606"/>
    </linearGradient>
    <clipPath id="clip-path">
      <path id="Path_676" data-name="Path 676" d="M4204.017,17595.568a60.7,60.7,0,0,1,0-13.467c1.092-9.307,5.592-20.219,23.955-21.762,32.386-2.725,26.1,31.461,26.1,31.461s-1.9,10.09-23.2,10.371S4204.017,17595.568,4204.017,17595.568Z" transform="translate(-4203.643 -17560.186)" fill="#7ee26c"/>
    </clipPath>
    <linearGradient id="linear-gradient-3" x1="0.5" x2="0.5" y2="1" gradientUnits="objectBoundingBox">
      <stop offset="0" stop-color="#7ee26c"/>
      <stop offset="1" stop-color="#44d02b"/>
    </linearGradient>
  </defs>
  <g id="Group_930" data-name="Group 930" transform="translate(13867 8753)">
    <g id="Group_926" data-name="Group 926" transform="translate(-16320 -27681)">
      <g id="Group_856" data-name="Group 856" transform="translate(0 3)">
        <rect id="Rectangle_486" data-name="Rectangle 486" width="87" height="83" rx="41.5" transform="translate(2453 18927)" fill="url(#linear-gradient)"/>
        <g id="Group_855" data-name="Group 855" transform="translate(-863 1424)">
          <path id="Path_677" data-name="Path 677" d="M3509.852,17546.258v-7.926a44.2,44.2,0,0,0,11.034-2.279,22.6,22.6,0,0,0,7.635-5.08s-4.633-5.7-11.616-2.684a14.234,14.234,0,0,0-8.126,10.043Z" transform="translate(-153.11 -26.305)" fill="#41c62a"/>
          <path id="Path_669" data-name="Path 669" d="M3370.383,17851.855s3.044,9.152,4.522,10.885c.76.891,2.872,4.748,11.157,5.719,7.811.916,18.654.3,21.179-.271,5.749-1.3,8.4-.289,11.247-4.217s3.237-12.8,3.237-12.8Z" transform="translate(-41.095 -285.422)" fill="#9a7f26"/>
          <path id="Path_679" data-name="Path 679" d="M27.5,0C42.688,0,55,6.716,55,15S42.688,30,27.5,30-.983,22.569-.983,14.285,12.312,0,27.5,0Z" transform="translate(3327 17532)" fill="#ccac43"/>
          <path id="Path_672" data-name="Path 672" d="M4204.017,17595.568a60.7,60.7,0,0,1,0-13.467c1.092-9.307,5.592-20.219,23.955-21.762,32.386-2.725,26.1,31.461,26.1,31.461s-1.9,10.09-23.2,10.371S4204.017,17595.568,4204.017,17595.568Z" transform="translate(-874.405 -43.188)" fill="url(#linear-gradient-2)"/>
          <path id="Path_670" data-name="Path 670" d="M3329.519,17711.168s-12.881,4.758-8.537,16.629,20.389,14.307,20.389,14.307,26.632,3.539,39.78-5.609c7.665-5.334,7.634-13.359,6.005-18.506a12.066,12.066,0,0,0-3.252-5.355l-2.753,11.584-15.1,7.018-33.842-1.975-7.874-11.271Z" transform="translate(0 -171.276)" fill="#ccac43"/>
          <path id="Path_671" data-name="Path 671" d="M3342.152,17710.121a5.2,5.2,0,0,0-2.616,3.584c-1.05,4.941,2.786,12.979,27.305,12.076,37.206-1.371,25.82-15.861,25.82-15.861v-1.814s6.448,2.523,6.374,7.348c-.093,6.082-8.73,14.883-32.194,15.736-21.626.787-30.479-8.639-31.148-14.869-.613-5.7,6.459-7.936,6.459-7.936Z" transform="translate(-12.694 -168.779)" fill="#fad65f"/>
          <path id="Path_673" data-name="Path 673" d="M3443.166,17687.162a2.729,2.729,0,0,1,2.954-2.555,3.318,3.318,0,0,1,3.47,2.555" transform="translate(-100.352 -149.617)" fill="none" stroke="#1bb400" stroke-linecap="round" stroke-width="1"/>
          <path id="Path_674" data-name="Path 674" d="M3449.59,17687.162a2.729,2.729,0,0,0-2.954-2.555,3.318,3.318,0,0,0-3.47,2.555" transform="translate(-81.925 -149.617)" fill="none" stroke="#1bb400" stroke-linecap="round" stroke-width="1"/>
          <g id="Mask_Group_50" data-name="Mask Group 50" transform="translate(3329.238 17516.998)" clip-path="url(#clip-path)">
            <path id="Union_8" data-name="Union 8" d="M16.347,35.312A2.663,2.663,0,1,1,19.01,38,2.676,2.676,0,0,1,16.347,35.312ZM38.755,19.834a3.123,3.123,0,1,1,3.122,3.151A3.137,3.137,0,0,1,38.755,19.834ZM0,17.239a2.755,2.755,0,1,1,2.755,2.781A2.768,2.768,0,0,1,0,17.239Zm6.429-1.112a1.837,1.837,0,1,1,1.837,1.854A1.845,1.845,0,0,1,6.429,16.127ZM2.755,5.561a5.51,5.51,0,1,1,5.51,5.561A5.536,5.536,0,0,1,2.755,5.561ZM26.265,6.58A3.582,3.582,0,1,1,29.847,10.2,3.6,3.6,0,0,1,26.265,6.58Z" transform="translate(2.762 1.002)" fill="#1bb400" opacity="0.607"/>
          </g>
          <path id="Path_678" data-name="Path 678" d="M3520.278,17521.658s3.9-4.66,7.9-6.215a12.543,12.543,0,0,1,8.1,0" transform="translate(-163.224 -11.131)" fill="none" stroke="#148600" stroke-width="1"/>
        </g>
      </g>
      <ellipse id="Ellipse_350" data-name="Ellipse 350" cx="6" cy="7.5" rx="6" ry="7.5" transform="translate(2495 18952)" fill="url(#linear-gradient-3)"/>
      <ellipse id="Ellipse_351" data-name="Ellipse 351" cx="6" cy="7" rx="6" ry="7" transform="translate(2475 18953)" fill="url(#linear-gradient-3)"/>
      <ellipse id="Ellipse_346" data-name="Ellipse 346" cx="5" cy="6" rx="5" ry="6" transform="translate(2476 18954)" fill="#240302"/>
      <ellipse id="Ellipse_348" data-name="Ellipse 348" cx="5" cy="6" rx="5" ry="6" transform="translate(2496 18954)" fill="#240302"/>
      <ellipse id="Ellipse_347" data-name="Ellipse 347" cx="1.5" cy="2" rx="1.5" ry="2" transform="translate(2478 18957)" fill="#fff"/>
      <ellipse id="Ellipse_349" data-name="Ellipse 349" cx="1.5" cy="2" rx="1.5" ry="2" transform="translate(2498 18957)" fill="#fff"/>
      <path id="Path_680" data-name="Path 680" d="M1713.724,20042.75a7.594,7.594,0,0,0,3.265,1.043,5.439,5.439,0,0,0,2.9-1.043,3.161,3.161,0,0,1-3.083,2.242A3.553,3.553,0,0,1,1713.724,20042.75Z" transform="translate(764.349 -1079.611)" fill="#5f1900"/>
      <path id="Path_683" data-name="Path 683" d="M1713.724,20042.75a7.594,7.594,0,0,0,3.265,1.043,5.439,5.439,0,0,0,2.9-1.043,3.161,3.161,0,0,1-3.083,2.242A3.553,3.553,0,0,1,1713.724,20042.75Z" transform="translate(784.349 -1079.611)" fill="#5f1900"/>
      <path id="Path_681" data-name="Path 681" d="M1478.47,19962.863s.675-3.549,2.8-5.215,5.7-1.447,5.7-1.447,2.439,1.578.315,3.244c-.6.469-2.558-.385-3.759.109A20.479,20.479,0,0,0,1478.47,19962.863Z" transform="translate(998 -1009.147)" fill="#0f6500"/>
      <path id="Path_682" data-name="Path 682" d="M7.331,0a7.547,7.547,0,0,1-2.12,3.949A7.391,7.391,0,0,1,.9,5.045S-.951,3.851.658,2.589c.454-.356,1.937.29,2.847-.084A15.519,15.519,0,0,0,7.331,0Z" transform="translate(2500.379 18944.494) rotate(60)" fill="#0f6500"/>
      <path id="Path_684" data-name="Path 684" d="M11.908,1.635c6.5,0,8.653,9.369,8.653,9.369L0,9S5.408,1.635,11.908,1.635Z" transform="translate(2505.783 18976.949) rotate(171)" fill="#5e8e56"/>
      <path id="Path_685" data-name="Path 685" d="M2483.754,18969.285l20.624-1.535-1.446,2.609a82.742,82.742,0,0,1-11.61.543A21.525,21.525,0,0,1,2483.754,18969.285Z" fill="#ebebeb"/>
    </g>
    <g id="Group_927" data-name="Group 927" transform="translate(-14637 -8992.364)">
      <g id="Group_684" data-name="Group 684" transform="translate(834 239)">
        <circle id="Ellipse_269" data-name="Ellipse 269" cx="16" cy="16" r="16" transform="translate(0 0.364)" fill="#f86e6e"/>
        <path id="Path_553" data-name="Path 553" d="M0,0H4.506L4.118,11.471H.284Z" transform="translate(13.929 5.735)" fill="#fff"/>
      </g>
      <circle id="Ellipse_272" data-name="Ellipse 272" cx="2" cy="2" r="2" transform="translate(848 258.364)" fill="#fff"/>
    </g>
  </g>
</svg>
