<svg xmlns="http://www.w3.org/2000/svg" width="141.951" height="141.207" viewBox="0 0 141.951 141.207">
  <path id="Union_12" data-name="Union 12" d="M18412.281,11560.64c-15.227-15.952-17.279-33.793-17.279-33.793l18.324-.028a49.57,49.57,0,0,0,11.473,21.111,51.4,51.4,0,0,0,20.623,12.71v18.566S18427.5,11576.6,18412.281,11560.64Zm59.143,0a51.4,51.4,0,0,0,20.623-12.71,49.57,49.57,0,0,0,11.473-21.111l18.324.023s-2.053,17.841-17.279,33.8-33.141,18.562-33.141,18.562Zm20.623-77.929a51.435,51.435,0,0,0-20.623-12.714v-18.562s14.041,2.042,27.822,13.577l28-27.013,9.7,10.03-27.977,27.082c11.227,14.424,12.867,28.684,12.867,28.684l-18.324.023A49.54,49.54,0,0,0,18492.047,11482.711Zm-97.045,21.084s2.053-17.841,17.273-33.8,33.146-18.562,33.146-18.562V11470a51.462,51.462,0,0,0-20.627,12.714,49.481,49.481,0,0,0-11.469,21.107Z" transform="translate(-18395.002 -11437.999)" fill="#ccc"/>
</svg>
