<svg xmlns="http://www.w3.org/2000/svg" width="141.887" height="141.177" viewBox="0 0 141.887 141.177">
  <g id="Grupo_950" data-name="Grupo 950" transform="translate(22257.023 7881)">
    <path id="Trazado_868" data-name="Trazado 868" d="M-22206.646-7968.794l.012,18.557s-17.227-2.514-32.828-18.325-17.561-33.966-17.561-33.966h18.283s3.014,12.475,12.125,21.646A49.477,49.477,0,0,0-22206.646-7968.794Z" transform="translate(0 197)" fill="#3369fd"/>
    <path id="Unión_13" data-name="Unión 13" d="M106.844,115.032l-.8-.7c-14.084,11.488-27.489,13.444-27.489,13.444l.012-18.561A49.49,49.49,0,0,0,98.543,97.124c9.113-9.173,12.128-21.65,12.128-21.65h18.287A61.343,61.343,0,0,1,116.08,104.15a1.221,1.221,0,0,1-.174.194l27.7,26.871-9.6,9.961ZM18.664,18.824C33.921,2.682,52.047.012,52.047.012l.072,18.533A50.234,50.234,0,0,0,31.667,31.28a51.991,51.991,0,0,0-11.615,21.1l-18.287.02S3.407,34.97,18.664,18.824Zm91.959,33.549a51.986,51.986,0,0,0-11.617-21.1A50.239,50.239,0,0,0,78.551,18.536L78.623,0s18.13,2.669,33.389,18.817,16.9,33.575,16.9,33.575Z" transform="translate(-22258.744 -7881)" fill="#ccc"/>
  </g>
</svg>
