<svg xmlns="http://www.w3.org/2000/svg" width="141.887" height="141.177" viewBox="0 0 141.887 141.177">
  <g id="Grupo_952" data-name="Grupo 952" transform="translate(21905.023 7881)">
    <path id="Unión_16" data-name="Unión 16" d="M19.282,109.438C3.68,93.627,1.721,75.471,1.721,75.471H20s3.013,12.476,12.125,21.646A49.48,49.48,0,0,0,52.1,109.207l.012,18.556S34.883,125.249,19.282,109.438Zm-.617-90.614C33.921,2.682,52.047.012,52.047.012l.072,18.533A50.234,50.234,0,0,0,31.667,31.28a51.991,51.991,0,0,0-11.615,21.1l-18.287.02S3.407,34.97,18.664,18.824Zm91.959,33.549a51.986,51.986,0,0,0-11.617-21.1A50.239,50.239,0,0,0,78.551,18.536L78.623,0s18.13,2.669,33.389,18.817,16.9,33.575,16.9,33.575Z" transform="translate(-21906.744 -7881)" fill="#3369fd"/>
    <path id="Trazado_876" data-name="Trazado 876" d="M-22257.012-7968.787l-.012,18.561s13.4-1.956,27.488-13.444l.8.7,27.16,26.145,9.6-9.961-27.7-26.872a1.179,1.179,0,0,0,.174-.195,61.334,61.334,0,0,0,12.877-28.675h-18.287s-3.014,12.478-12.127,21.65A49.486,49.486,0,0,1-22257.012-7968.787Z" transform="translate(428.839 197.002)" fill="#ccc"/>
  </g>
</svg>
