<svg xmlns="http://www.w3.org/2000/svg" width="141.887" height="141.177" viewBox="0 0 141.887 141.177">
  <path id="Unión_12" data-name="Unión 12" d="M106.844,115.032l-.8-.7c-14.084,11.488-27.489,13.444-27.489,13.444l.012-18.561A49.49,49.49,0,0,0,98.543,97.124c9.113-9.173,12.128-21.65,12.128-21.65h18.287A61.343,61.343,0,0,1,116.08,104.15a1.221,1.221,0,0,1-.174.194l27.7,26.871-9.6,9.961Zm-87.562-5.593C3.68,93.627,1.721,75.471,1.721,75.471H20s3.013,12.476,12.125,21.646A49.48,49.48,0,0,0,52.1,109.207l.012,18.556S34.883,125.249,19.282,109.438Zm-.617-90.614C33.921,2.682,52.047.012,52.047.012l.072,18.533A50.234,50.234,0,0,0,31.667,31.28a51.991,51.991,0,0,0-11.615,21.1l-18.287.02S3.407,34.97,18.664,18.824Zm91.959,33.549a51.986,51.986,0,0,0-11.617-21.1A50.239,50.239,0,0,0,78.551,18.536L78.623,0s18.13,2.669,33.389,18.817,16.9,33.575,16.9,33.575Z" transform="translate(-1.721)" fill="#ccc"/>
</svg>
