<svg xmlns="http://www.w3.org/2000/svg" width="141.887" height="141.177" viewBox="0 0 141.887 141.177">
  <g id="Grupo_951" data-name="Grupo 951" transform="translate(22089.023 7881)">
    <path id="Uni贸n_14" data-name="Uni贸n 14" d="M30.008,115.032l-.8-.7C15.127,125.82,1.723,127.777,1.723,127.777l.012-18.561A49.491,49.491,0,0,0,21.707,97.124c9.113-9.173,12.127-21.65,12.127-21.65H52.121A61.336,61.336,0,0,1,39.244,104.15a1.174,1.174,0,0,1-.175.194l27.7,26.871-9.6,9.961Zm3.78-62.658a52,52,0,0,0-11.617-21.1A50.239,50.239,0,0,0,1.715,18.536L1.787,0S19.916,2.669,35.177,18.817s16.9,33.575,16.9,33.575Z" transform="translate(-22013.908 -7881)" fill="#ccc"/>
    <path id="Uni贸n_15" data-name="Uni贸n 15" d="M19.282,109.426C3.68,93.614,1.721,75.46,1.721,75.46H20S23.017,87.935,32.129,97.1A49.468,49.468,0,0,0,52.1,109.194l.012,18.557S34.883,125.237,19.282,109.426Zm-.617-90.613C33.921,2.67,52.047,0,52.047,0l.072,18.533A50.234,50.234,0,0,0,31.667,31.268a51.991,51.991,0,0,0-11.615,21.1l-18.287.02S3.407,34.959,18.664,18.813Z" transform="translate(-22090.744 -7880.988)" fill="#3369fd"/>
  </g>
</svg>
