<svg xmlns="http://www.w3.org/2000/svg" width="143.607" height="141.177" viewBox="0 0 143.607 141.177">
  <g id="Grupo_948" data-name="Grupo 948" transform="translate(21906.744 7881)">
    <path id="Trazado_877" data-name="Trazado 877" d="M-22206.646-7968.794l.012,18.557s-17.227-2.514-32.828-18.325-17.561-33.966-17.561-33.966h18.283s3.014,12.475,12.125,21.646A49.477,49.477,0,0,0-22206.646-7968.794Z" transform="translate(352 197)" fill="#3369fd"/>
    <path id="Trazado_876" data-name="Trazado 876" d="M-22257.012-7968.787l-.012,18.561s13.4-1.956,27.488-13.444l.8.7,27.16,26.145,9.6-9.961-27.7-26.872a1.179,1.179,0,0,0,.174-.195,61.334,61.334,0,0,0,12.877-28.675h-18.287s-3.014,12.478-12.127,21.65A49.486,49.486,0,0,1-22257.012-7968.787Z" transform="translate(428.839 197.002)" fill="#ccc"/>
    <path id="Trazado_878" data-name="Trazado 878" d="M-22206.326-7968.627l-.619,18.276s-17.357-2.249-32.959-18.06-17.637-34.019-17.637-34.019l18.523.575a50.233,50.233,0,0,0,12.014,20.883A51.976,51.976,0,0,0-22206.326-7968.627Z" transform="matrix(0.035, 0.999, -0.999, 0.035, -29075.475, 14642.275)" fill="#3369fd"/>
    <path id="Trazado_879" data-name="Trazado 879" d="M51.225,18.279,50.605,0S33.246,2.249,17.641,18.063,0,52.088,0,52.088l18.527-.575A50.238,50.238,0,0,1,30.543,30.626,51.992,51.992,0,0,1,51.225,18.279Z" transform="matrix(-0.035, 0.999, -0.999, -0.035, -21776.064, -7879.183)" fill="#3369fd"/>
  </g>
</svg>
