<svg xmlns="http://www.w3.org/2000/svg" width="245.574" height="600.772" viewBox="0 0 245.574 600.772">
  <g id="Grupo_944" data-name="Grupo 944" transform="translate(21993.002 8168.567)">
    <path id="Union_12" data-name="Union 12" d="M18412.3,11560.6c-15.227-15.952-17.279-33.793-17.279-33.793l18.324-.028a49.563,49.563,0,0,0,11.473,21.11,51.4,51.4,0,0,0,20.623,12.712v18.565S18427.5,11576.6,18412.3,11560.6Zm59.143,0a51.4,51.4,0,0,0,20.623-12.71,49.57,49.57,0,0,0,11.473-21.112l18.324.024s-2.053,17.841-17.279,33.8-33.141,18.562-33.141,18.562Zm20.623-77.929a51.447,51.447,0,0,0-20.621-12.714l0-18.562s14.041,2.042,27.822,13.577l28-27.013,9.7,10.03-27.977,27.082c11.227,14.424,12.867,28.684,12.867,28.684l-18.324.023A49.531,49.531,0,0,0,18492,11482.7Zm-97.045,21.084s2.053-17.841,17.273-33.8,33.146-18.562,33.146-18.562V11470a51.455,51.455,0,0,0-20.627,12.713,49.486,49.486,0,0,0-11.469,21.107Z" transform="translate(-40388.023 -19146.961)" fill="#ccc"/>
    <path id="Union_12-2" data-name="Union 12" d="M18412.3,11560.6c-15.227-15.952-17.279-33.793-17.279-33.793l18.324-.028a49.563,49.563,0,0,0,11.473,21.11,51.4,51.4,0,0,0,20.623,12.712v18.565S18427.5,11576.6,18412.3,11560.6Zm59.143,0a51.4,51.4,0,0,0,20.623-12.71,49.57,49.57,0,0,0,11.473-21.112l18.324.024s-2.053,17.841-17.279,33.8-33.141,18.562-33.141,18.562Zm20.623-77.929a51.447,51.447,0,0,0-20.621-12.714l0-18.562s14.041,2.042,27.822,13.577l28-27.013,9.7,10.03-27.977,27.082c11.227,14.424,12.867,28.684,12.867,28.684l-18.324.023A49.531,49.531,0,0,0,18492,11482.7Zm-97.045,21.084s2.053-17.841,17.273-33.8,33.146-18.562,33.146-18.562V11470a51.455,51.455,0,0,0-20.627,12.713,49.486,49.486,0,0,0-11.469,21.107Z" transform="translate(-40385.023 -19384.961)" fill="#ccc"/>
    <path id="Union_12-3" data-name="Union 12" d="M18412.3,11560.6c-15.227-15.952-17.279-33.793-17.279-33.793l18.324-.028a49.563,49.563,0,0,0,11.473,21.11,51.4,51.4,0,0,0,20.623,12.712v18.565S18427.5,11576.6,18412.3,11560.6Zm59.143,0a51.4,51.4,0,0,0,20.623-12.71,49.57,49.57,0,0,0,11.473-21.112l18.324.024s-2.053,17.841-17.279,33.8-33.141,18.562-33.141,18.562Zm20.623-77.929a51.447,51.447,0,0,0-20.621-12.714l0-18.562s14.041,2.042,27.822,13.577l9.723,10.1c11.227,14.424,12.867,28.684,12.867,28.684l-18.324.023A49.531,49.531,0,0,0,18492,11482.7Zm-97.045,21.084s2.053-17.841,17.273-33.8,33.146-18.562,33.146-18.562V11470a51.455,51.455,0,0,0-20.627,12.713,49.486,49.486,0,0,0-11.469,21.107Z" transform="translate(-40385.023 -19619.961)" fill="#ccc"/>
    <path id="Union_12-4" data-name="Union 12" d="M18412.3,11560.6c-15.227-15.952-17.279-33.793-17.279-33.793l18.324-.028a49.563,49.563,0,0,0,11.473,21.11,51.4,51.4,0,0,0,20.623,12.712v18.565S18427.5,11576.6,18412.3,11560.6Zm59.143,0a51.4,51.4,0,0,0,20.623-12.71,49.57,49.57,0,0,0,11.473-21.112l18.324.024s-2.053,17.841-17.279,33.8-33.141,18.562-33.141,18.562Zm20.623-77.929a51.447,51.447,0,0,0-20.621-12.714l0-18.562s14.041,2.042,27.822,13.577l28-27.013,9.7,10.03-27.977,27.082c11.227,14.424,12.867,28.684,12.867,28.684l-18.324.023A49.531,49.531,0,0,0,18492,11482.7Zm-97.045,21.084s2.053-17.841,17.273-33.8,33.146-18.562,33.146-18.562V11470a51.455,51.455,0,0,0-20.627,12.713,49.486,49.486,0,0,0-11.469,21.107Z" transform="translate(-33326.594 10708.596) rotate(-90)" fill="#ccc"/>
    <path id="Union_12-5" data-name="Union 12" d="M18412.3,11560.6c-15.227-15.952-17.279-33.793-17.279-33.793l18.324-.028a49.563,49.563,0,0,0,11.473,21.11,51.4,51.4,0,0,0,20.623,12.712v18.565S18427.5,11576.6,18412.3,11560.6Zm59.143,0a51.4,51.4,0,0,0,20.623-12.71,49.57,49.57,0,0,0,11.473-21.112l18.324.024s-2.053,17.841-17.279,33.8-33.141,18.562-33.141,18.562Zm20.623-77.929a51.447,51.447,0,0,0-20.621-12.714l0-18.562s14.041,2.042,27.822,13.577l28-27.013,9.7,10.03-27.977,27.082c11.227,14.424,12.867,28.684,12.867,28.684l-18.324.023A49.531,49.531,0,0,0,18492,11482.7Zm-97.045,21.084s2.053-17.841,17.273-33.8,33.146-18.562,33.146-18.562V11470a51.455,51.455,0,0,0-20.627,12.713,49.486,49.486,0,0,0-11.469,21.107Z" transform="translate(-33326.594 10472.596) rotate(-90)" fill="#ccc"/>
  </g>
</svg>
