<?xml version="1.0"?>
<svg xmlns="http://www.w3.org/2000/svg" height="512px" viewBox="0 0 496 496" width="512px"><g><path d="m408 288v16c22.054688 0 40 17.945312 40 40h16c0-30.871094-25.121094-56-56-56zm0 0" data-original="#000000" class="active-path" data-old_color="#000000" fill="#396AFC"/><path d="m240 96c-.585938 0-1.152344.054688-1.433594.121094l.671875 15.984375c.433594-.015625.859375-.066407.761719-.105469 10.910156 0 20.433594 7.441406 23.152344 18.089844l15.503906-3.953125c-4.519531-17.746094-20.425781-30.136719-38.65625-30.136719zm0 0" data-original="#000000" class="active-path" data-old_color="#000000" fill="#396AFC"/><path d="m345.433594 95.878906-.671875-15.984375c-.433594.015625-.859375.066407-.761719.105469-7.167969 0-13.945312-3.289062-18.574219-9.03125l-4.195312-5.191406-5.863281 3.191406c-7.367188 4.015625-15.367188 4.015625-22.734376 0l-7.664062 14.046875c10.246094 5.59375 21.765625 6.496094 32.335938 2.601563 7.320312 6.65625 16.757812 10.382812 26.695312 10.382812.585938 0 1.152344-.054688 1.433594-.121094zm0 0" data-original="#000000" class="active-path" data-old_color="#000000" fill="#396AFC"/><path d="m466.679688 278.425781c-18.617188-16.664062-43.640626-24.617187-68.6875-21.867187-10.425782 1.160156-20.585938 4.265625-30 9.128906v-41.6875c19.550781 0 35.871093-14.105469 39.328124-32.671875 18.574219-3.457031 32.679688-19.777344 32.679688-39.328125 0-7.089844-1.878906-13.894531-5.488281-20 3.609375-6.105469 5.488281-12.910156 5.488281-20 0-16.152344-9.71875-30.472656-24.273438-36.671875-2.140624-18.335937-16.726562-32.914063-35.054687-35.054687-6.199219-14.554688-20.519531-24.273438-36.671875-24.273438-4.527344 0-8.992188.800781-13.3125 2.382812-7.3125-6.65625-16.75-10.382812-26.6875-10.382812s-19.375 3.726562-26.6875 10.382812c-4.039062-1.480468-8.207031-2.207031-12.441406-2.304687-23.167969-10.636719-47.910156-16.078125-73.625-16.078125-32.535156 0-63.878906 9.792969-90.644532 28.3125-42.953124 29.734375-68.601562 78.679688-68.601562 130.925781v20.074219c0 .871094-.351562 1.726562-.96875 2.34375l-25.367188 25.367188c-3.601562 3.59375-5.664062 8.570312-5.664062 13.664062 0 10.648438 8.664062 19.3125 19.3125 19.3125 3.734375 0 6.953125 2.542969 7.808594 6.183594l17.800781 75.65625c7.503906 31.886718 35.621094 54.160156 68.382813 54.160156 10.847656 0 21.710937-2.558594 31.414062-7.414062l15.28125-7.640626v71.054688h16v-79.054688l83.574219-41.792968-7.160157-14.3125-114.855468 57.433594c-7.488282 3.75-15.878906 5.726562-24.253906 5.726562-25.296876 0-47.015626-17.191406-52.808594-41.832031l-17.808594-75.65625c-2.558594-10.894531-12.175781-18.511719-23.375-18.511719-1.824219 0-3.3125-1.488281-3.3125-3.3125 0-.871094.351562-1.726562.96875-2.34375l25.367188-25.367188c3.601562-3.59375 5.664062-8.570312 5.664062-13.664062v-20.074219c0-47 23.070312-91.023437 61.710938-117.765625 24.074218-16.664062 52.265624-25.472656 81.535156-25.472656 16.953125 0 33.441406 2.632812 49.25 7.726562-3.390625 2.496094-6.441406 5.503907-8.9375 9.035157-9.078125-1.832031-18.03125-.394531-26.734375 4.367187-6.671875 3.671875-12.121094 9.136719-15.753907 15.808594-4.71875 8.65625-6.167968 17.582031-4.316406 26.621094-10.472656 7.425781-16.753906 19.335937-16.753906 32.441406 0 20.480469 15.464844 37.40625 35.328125 39.726562 5.601563 13.136719 17.800781 22.328126 32 24 6.199219 14.554688 20.519531 24.273438 36.671875 24.273438 7.886719 0 15.425781-2.265625 21.863281-6.496094 16.90625 19.3125 26.136719 43.792969 26.136719 69.6875v27.113282l-.03125-.015626-8.359375 17.765626c-15.441406 32.808593-23.609375 69.320312-23.609375 105.59375v50.351562h16v-50.351562c0-28.753907 5.535156-57.640626 16-84.464844v14.816406h.039062c0 31.273438 16.816407 60.449219 43.882813 76.136719 2.519531 1.457031 4.078125 4.09375 4.078125 6.902343v27.585938c0 21.167969 15.855469 39.253906 36.097656 41.183594 1.269532.128906 2.550782.191406 3.8125.191406 9.945313 0 19.609375-3.6875 26.992188-10.398438 8.320312-7.5625 13.097656-18.363281 13.097656-29.601562v-28.953125c0-2.839844 1.527344-5.429687 4.089844-6.910156 27.085937-15.722657 43.910156-44.890625 43.910156-76.136719 0-24.992188-10.6875-48.894531-29.320312-65.574219zm-34.679688 153.574219v16h-48v-16zm-32-80c0-4.414062 3.59375-8 8-8s8 3.585938 8 8-3.59375 8-8 8-8-3.585938-8-8zm5.617188 127.886719c-9.050782-.863281-16.632813-7.277344-19.890626-15.886719h44.777344c-1.3125 3.6875-3.40625 7.089844-6.359375 9.769531-5.074219 4.589844-11.648437 6.695313-18.527343 6.117188zm38.445312-73.597657c-4.015625 2.328126-7.109375 5.75-9.199219 9.710938h-18.863281v-41.472656c9.289062-3.3125 16-12.113282 16-22.527344 0-13.230469-10.769531-24-24-24s-24 10.769531-24 24c0 10.414062 6.710938 19.214844 16 22.527344v41.472656h-18.863281c-2.089844-3.960938-5.183594-7.382812-9.199219-9.710938-22.144531-12.832031-35.898438-36.703124-35.90625-62.289062l-.03125-80.808594c0-32.566406-12.679688-63.191406-35.710938-86.222656l-5.65625-5.65625-5.664062 5.65625c-4.527344 4.535156-10.554688 7.03125-16.96875 7.03125-10.910156 0-20.433594-7.441406-23.152344-18.089844l-1.609375-6.285156-6.484375.269531c-.425781.015625-.851562.066407-.753906.105469-10.910156 0-20.433594-7.441406-23.152344-18.089844l-1.609375-6.285156-6.484375.269531c-.425781.015625-.851562.066407-.753906.105469-13.230469 0-24-10.769531-24-24 0-9.214844 5.222656-17.464844 13.632812-21.519531l6.589844-3.183594-2.589844-6.839844c-2.578124-6.808593-2.089843-13.296875 1.496094-19.855469 2.136719-3.929687 5.472656-7.273437 9.390625-9.433593 6.585938-3.59375 13.097657-4.105469 19.929688-1.519531l6.839843 2.582031 3.183594-6.582031c5.765625-11.921876 20.40625-17.410157 32.886719-10.601563l5.863281 3.191406 4.191406-5.191406c4.640626-5.757813 11.417969-9.046875 18.585938-9.046875s13.945312 3.289062 18.574219 9.03125l4.195312 5.191406 5.863281-3.191406c14.121094-7.695312 30.832032.640625 34.511719 15.058594l1.609375 6.285156 6.484375-.269531c.433594-.015625.859375-.066407.761719-.105469 13.230469 0 24 10.769531 24.023438 23.449219l-.335938 7.816406 6.222656 1.582031c10.648438 2.710938 18.089844 12.242188 18.089844 23.152344 0 5.398438-1.871094 10.574219-5.425781 14.96875l-4.0625 5.03125 4.0625 5.03125c3.554687 4.394531 5.425781 9.570312 5.425781 14.96875 0 13.230469-10.769531 24-24 24h-8v8c0 13.230469-10.769531 24-24 24-1.777344 0-3.679688-.28125-6-.871094l-10-2.59375v91.664063l12.824219-9.679688c10.351562-7.816406 22.433593-12.679687 34.9375-14.0625 20.847656-2.320312 40.804687 4.046875 56.253906 17.878907 15.242187 13.65625 23.984375 33.214843 23.984375 53.664062 0 25.558594-13.769531 49.433594-35.9375 62.289062zm0 0" data-original="#000000" class="active-path" data-old_color="#000000" fill="#396AFC"/><path d="m376 160v-8c0-5.398438 1.871094-10.574219 5.425781-14.96875l-12.449219-10.0625c-4.273437 5.296875-7.082031 11.320312-8.296874 17.710938-14.832032 2.800781-27.152344 13.929687-31.191407 28.96875l15.457031 4.160156c2.816407-10.488282 12.292969-17.808594 23.054688-17.808594zm0 0" data-original="#000000" class="active-path" data-old_color="#000000" fill="#396AFC"/><path d="m160 448h16v16h-16zm0 0" data-original="#000000" class="active-path" data-old_color="#000000" fill="#396AFC"/><path d="m160 480h16v16h-16zm0 0" data-original="#000000" class="active-path" data-old_color="#000000" fill="#396AFC"/><path d="m288 480h16v16h-16zm0 0" data-original="#000000" class="active-path" data-old_color="#000000" fill="#396AFC"/><path d="m192 360h16v16h-16zm0 0" data-original="#000000" class="active-path" data-old_color="#000000" fill="#396AFC"/><path d="m192 392h16v16h-16zm0 0" data-original="#000000" class="active-path" data-old_color="#000000" fill="#396AFC"/><path d="m192 424h16v72h-16zm0 0" data-original="#000000" class="active-path" data-old_color="#000000" fill="#396AFC"/><path d="m256 360h16v16h-16zm0 0" data-original="#000000" class="active-path" data-old_color="#000000" fill="#396AFC"/><path d="m256 392h16v16h-16zm0 0" data-original="#000000" class="active-path" data-old_color="#000000" fill="#396AFC"/><path d="m256 424h16v72h-16zm0 0" data-original="#000000" class="active-path" data-old_color="#000000" fill="#396AFC"/><path d="m224 344h16v152h-16zm0 0" data-original="#000000" class="active-path" data-old_color="#000000" fill="#396AFC"/></g> </svg>
