<svg xmlns="http://www.w3.org/2000/svg" width="144.35" height="62.302" viewBox="0 0 144.35 62.302">
  <g id="Grupo_433" data-name="Grupo 433" transform="translate(0 5)">
    <g id="Grupo_395" data-name="Grupo 395" transform="translate(0 -5)">
      <text id="u" transform="translate(81.033 52.216)" fill="#3369fd" font-size="37" font-family="Montserrat-Bold, Montserrat" font-weight="700" letter-spacing="-0.009em"><tspan x="0" y="0">u</tspan></text>
      <text id="m" transform="translate(105.35 52.216)" fill="#3369fd" font-size="37" font-family="Montserrat-Bold, Montserrat" font-weight="700" letter-spacing="-0.009em"><tspan x="0" y="0">m</tspan></text>
      <g id="Grupo_387" data-name="Grupo 387" transform="translate(50.659)">
        <path id="Path_246" data-name="Path 246" d="M121.962,140.181a67.041,67.041,0,0,1-4.692-7.748,36.011,36.011,0,0,1-1.6-4.855,28.758,28.758,0,0,1-.979-4.962,34.829,34.829,0,0,1-.089-6.942,29.055,29.055,0,0,1,1.535-7.791c1.523-5.118,4.5-11.726,5.036-14.108a53.194,53.194,0,0,0,1.329-7.113,9.944,9.944,0,0,0,0-3.779c-.207-.682-.793-1.316-.7-1.726.213-.933,1.464.5,1.741,1.726a20.779,20.779,0,0,1,.349,3.779,48.4,48.4,0,0,1-2.546,13.985c-.8,2.408-1.938,5.2-2.715,7.456a37.447,37.447,0,0,0-1.518,5.292,35.62,35.62,0,0,0-.725,9.4,30.754,30.754,0,0,0,.88,6.046,44.306,44.306,0,0,0,2.256,6.7A52.258,52.258,0,0,0,121.962,140.181Z" transform="translate(-108.852 -79.717)" fill="#3369fd"/>
        <path id="Path_247" data-name="Path 247" d="M115.547,91.54a4.046,4.046,0,0,1-2.338-3.861,4.308,4.308,0,0,1,4.535.046,4.072,4.072,0,0,1,2.222,3.7A3.879,3.879,0,0,1,115.547,91.54Z" transform="translate(-113.204 -61.087)" fill="#3369fd"/>
        <path id="Path_248" data-name="Path 248" d="M120.406,77.77a4.48,4.48,0,0,1,4.4.3,4.275,4.275,0,0,1-2.2,3.5,4.914,4.914,0,0,1-4.318.076A4.211,4.211,0,0,1,120.406,77.77Z" transform="translate(-103.376 -77.329)" fill="#3369fd"/>
        <path id="Path_249" data-name="Path 249" d="M123.8,84.753a4.477,4.477,0,0,1,.32,4.394,4.276,4.276,0,0,1-3.768-1.685,4.937,4.937,0,0,1-.677-4.267A4.21,4.21,0,0,1,123.8,84.753Z" transform="translate(-102.513 -66.284)" fill="#3369fd"/>
        <path id="Path_250" data-name="Path 250" d="M116.994,93.412a5.581,5.581,0,0,1,1.369-4.265,10.787,10.787,0,0,1,4.671-3.6,13.761,13.761,0,0,1,5.242-.723c2.575.2,6.187,1.533,5.986,2.067s-2.166-.7-4.6-.669a13.44,13.44,0,0,0-5.124.83A14.242,14.242,0,0,0,120.4,89.47,30.1,30.1,0,0,0,116.994,93.412Z" transform="translate(-105.95 -70.515)" fill="#3369fd"/>
      </g>
      <text id="E" transform="translate(0 52.526)" fill="#3369fd" font-size="36" font-family="Montserrat-Bold, Montserrat" font-weight="700" letter-spacing="-0.009em"><tspan x="0" y="0">E</tspan></text>
      <path id="Trazado_293" data-name="Trazado 293" d="M145.395,7793.246c-.392-2.063,1.022-3.783,4.149-4.636s4.121.967,6.391,1.907c.938.389,3.771,1.31,4.6,2.5,1.018,1.474-.142,3.274-.193,3.326-.086.085-1.984,2.933-4.658,2.243s-.863,1.208-4.571-1.726S145.787,7795.308,145.395,7793.246Z" transform="translate(-92.933 -7736.395)" fill="#3369fd"/>
    </g>
    <g id="Grupo_410" data-name="Grupo 410" transform="translate(26.261 20.81)">
      <path id="Trazado_301" data-name="Trazado 301" d="M873.126,557.847l-4.807-6.722-4.97,6.722h-6.925l8.433-11.04-8.148-10.877h7.129l4.644,6.4,4.766-6.4h6.763l-8.148,10.714,8.474,11.2Z" transform="translate(-856.424 -531.082)" fill="#3369fd"/>
      <path id="Trazado_302" data-name="Trazado 302" d="M918.148,555.566a6.529,6.529,0,0,1-2.3,1.039,11.687,11.687,0,0,1-2.872.346,8.535,8.535,0,0,1-6.05-2,7.637,7.637,0,0,1-2.138-5.865v-9H901.4V535.2h3.381v-5.337h6.355V535.2H916.6v4.889h-5.459v8.922a2.992,2.992,0,0,0,.713,2.139,2.639,2.639,0,0,0,2.017.753,4.09,4.09,0,0,0,2.566-.814Z" transform="translate(-865.475 -529.861)" fill="#3369fd"/>
    </g>
  </g>
</svg>
