<svg xmlns="http://www.w3.org/2000/svg" width="21.778" height="36.014" viewBox="0 0 21.778 36.014">
  <g id="Group_903" data-name="Group 903" transform="translate(12560.253 7430.999)">
    <path id="Path_303" data-name="Path 303" d="M0,0A8.226,8.226,0,0,0,3.929,6.437" transform="translate(-12540 -7405.902) rotate(180)" fill="none" stroke="#c2c2c2" stroke-linecap="round" stroke-width="3"/>
    <path id="Path_773" data-name="Path 773" d="M13.912,6.845c4.659-1.7,4.8-6.845,4.8-6.845" transform="translate(-12540 -7405.902) rotate(180)" fill="none" stroke="#c2c2c2" stroke-linecap="round" stroke-width="3"/>
    <path id="Path_304" data-name="Path 304" d="M5340.5-9546.849v3.638" transform="translate(-17895.102 2145.823)" fill="#1e64ef" stroke="#c2c2c2" stroke-linecap="round" stroke-width="3"/>
    <path id="Path_306" data-name="Path 306" d="M5340.5-9546.849v3.638" transform="translate(-17889.75 2146.726)" fill="#1e64ef" stroke="#c2c2c2" stroke-linecap="round" stroke-width="3"/>
    <path id="Path_307" data-name="Path 307" d="M5340.5-9546.849v3.638" transform="translate(-17884.398 2145.823)" fill="#1e64ef" stroke="#c2c2c2" stroke-linecap="round" stroke-width="3"/>
    <path id="Path_305" data-name="Path 305" d="M.9,0A20.427,20.427,0,0,0,0,5.457,18.044,18.044,0,0,0,.9,10.7" transform="translate(-12554.604 -7403.934) rotate(-90)" fill="#1e64ef" stroke="#c2c2c2" stroke-linecap="round" stroke-width="3"/>
    <g id="Path_311" data-name="Path 311" transform="translate(-12555.273 -7429.792)" fill="none">
      <path d="M6.191-1.207c3.1,0,6.191,4.433,6.191,7.852v9.631A6.191,6.191,0,0,1,0,16.276V6.645C0,3.226,3.1-1.207,6.191-1.207Z" stroke="none"/>
      <path d="M 6.191376209259033 1.792964935302734 C 5.895576000213623 1.792964935302734 5.128096103668213 2.187416076660156 4.327916145324707 3.245885848999023 C 3.521236419677734 4.312946319580078 2.999996185302734 5.647195816040039 2.999996185302734 6.645055770874023 L 2.999996185302734 16.27608489990234 C 2.999996185302734 18.03581619262695 4.431646347045898 19.46746635437012 6.191376209259033 19.46746635437012 C 7.951106071472168 19.46746635437012 9.382756233215332 18.03581619262695 9.382756233215332 16.27608489990234 L 9.382756233215332 6.645055770874023 C 9.382756233215332 5.647195816040039 8.861515998840332 4.312946319580078 8.054836273193359 3.245885848999023 C 7.254656314849854 2.187416076660156 6.487176418304443 1.792964935302734 6.191376209259033 1.792964935302734 M 6.191376209259033 -1.207035064697266 C 9.287066459655762 -1.207035064697266 12.38275623321533 3.225645065307617 12.38275623321533 6.645055770874023 L 12.38275623321533 16.27608489990234 C 12.38275623321533 19.69548606872559 9.610775947570801 22.46746635437012 6.191376209259033 22.46746635437012 C 2.771976470947266 22.46746635437012 -3.814697265625e-06 19.69548606872559 -3.814697265625e-06 16.27608489990234 L -3.814697265625e-06 6.645055770874023 C -3.814697265625e-06 3.225645065307617 3.095685958862305 -1.207035064697266 6.191376209259033 -1.207035064697266 Z" stroke="none" fill="#c2c2c2"/>
    </g>
    <path id="Path_309" data-name="Path 309" d="M0,0V3.34" transform="translate(-12553.181 -7415.723) rotate(-90)" fill="#1e64ef" stroke="#c2c2c2" stroke-linecap="round" stroke-width="3" opacity="0.49"/>
    <path id="Path_310" data-name="Path 310" d="M0,0V3.34" transform="translate(-12553.181 -7419.607) rotate(-90)" fill="#1e64ef" stroke="#c2c2c2" stroke-linecap="round" stroke-width="3" opacity="0.49"/>
  </g>
</svg>
