<svg xmlns="http://www.w3.org/2000/svg" xmlns:xlink="http://www.w3.org/1999/xlink" width="42" height="41.771" viewBox="0 0 42 41.771">
  <defs>
    <linearGradient id="linear-gradient" x1="0.5" x2="0.637" y2="1.583" gradientUnits="objectBoundingBox">
      <stop offset="0" stop-color="#7b5d0c"/>
      <stop offset="1" stop-color="#3e2f06"/>
    </linearGradient>
    <linearGradient id="linear-gradient-2" x1="0.5" y1="0.397" x2="1.297" y2="1.183" gradientUnits="objectBoundingBox">
      <stop offset="0" stop-color="#f3d4c0"/>
      <stop offset="1" stop-color="#ff758c"/>
    </linearGradient>
  </defs>
  <g id="Group_879" data-name="Group 879" transform="translate(484 5482)">
    <g id="Group_878" data-name="Group 878">
      <path id="Path_745" data-name="Path 745" d="M21,0A20.886,20.886,0,1,1,0,21,21,21,0,0,1,21,0Z" transform="translate(-484 -5482)" fill="#b6ff9b"/>
      <path id="Path_740" data-name="Path 740" d="M-2720.813-4550.023s-3.086-6.544-2.46-10.35,3.121-6.556,7.612-7.612,6.974-.023,10.35,3.388.51,13,.51,13-2.409,4.392-3.754,6.891a4.143,4.143,0,0,1-4.037,2.142s-1.682.56-3.945-1.575A27.774,27.774,0,0,1-2720.813-4550.023Z" transform="translate(2250 -902)" fill="url(#linear-gradient)"/>
      <rect id="Rectangle_497" data-name="Rectangle 497" width="4" height="4" transform="translate(-464.7 -5448)" fill="#eb847b"/>
      <path id="Path_741" data-name="Path 741" d="M8.5,0C13.194,0,17,4.158,17,9.286a10.462,10.462,0,0,1-2.589,6.879c-1.25,1.475-3.972,2.682-5.342,2.538C4.818,18.7,0,14.415,0,9.286S3.806,0,8.5,0Z" transform="translate(-471.7 -5466)" fill="url(#linear-gradient-2)"/>
      <path id="Path_744" data-name="Path 744" d="M-471.135-5452.894c.055-.247.4-4.957,3.459-6.426s5.65.673,9.09.439,3.583,0,3.583,0l-.318-1.338-2.22-2.452s-8.761.138-8.925.192-5.493,4.394-5.493,4.394Z" fill="#e8baab"/>
      <path id="Path_742" data-name="Path 742" d="M-2759.983-4549.685s-.6-4.651,1.563-6.691,4.281-1.619,7.016-1.013c4.4.975,10.971.229,11.163-1.941s-1.34-.575-5.572-2.91-5.97-7.173-12.607-3.692S-2759.983-4549.685-2759.983-4549.685Z" transform="translate(2289 -903)" fill="url(#linear-gradient)"/>
      <path id="Path_743" data-name="Path 743" d="M-2719.673-4537.248a28.1,28.1,0,0,0,6.861.908,26.378,26.378,0,0,0,6.718-1.035,11.506,11.506,0,0,0-2.683-3.76c-1.679-1.4-2,0-4.2,0s-2.366-1.437-4.183,0A8.553,8.553,0,0,0-2719.673-4537.248Z" transform="translate(2250 -904)" fill="#ff4a4a"/>
    </g>
  </g>
</svg>
